<svg id="Object" xmlns="http://www.w3.org/2000/svg" viewBox="0 0 440.96 472.12"><defs><clipPath id="clip-path" transform="translate(-105.25 -649.35)"><circle class="cls-1" cx="311" cy="911" r="137" transform="rotate(-60.08 311.044 911.039)"/></clipPath><clipPath id="clip-path-2" transform="translate(-105.25 -649.35)"><path class="cls-1" transform="rotate(29.92 312.483 908.284)" d="M166.5 762.4h292v292h-292z"/></clipPath><style>.cls-1{fill:none}.cls-4{fill:#fff}.cls-6{fill:#caeaea}.cls-7{fill:#fba89b}.cls-8{fill:#f8e8e9}.cls-11{fill:#fd7692}</style></defs><g clip-path="url(#clip-path)"><g clip-path="url(#clip-path-2)"><path id="_Rectangle_" data-name="&lt;Rectangle&gt;" class="cls-4" transform="rotate(29.92 1488.18 363.678)" d="M179.72 697.07h292v376.68h-292z"/><path class="cls-1" d="M303 677.24c4.59-4.8 9.2-9.61 14.14-14.05l-24.05-13.84-25.46 44.24c3 6.49 6 12.91 10 18.84 5.18-13.67 15.37-24.73 25.37-35.19zM139.41 995.08a2 2 0 01-.27.26l1.17.67c1.21-1.54 2.43-3 3.6-4.52a14.06 14.06 0 00-4.5 3.59zm244.41-293.54l-7.72-4.44q.83 6.24 1.88 12.45c2.02-2.55 3.89-5.22 5.84-8.01zM460.46 944l3.15-5.47q-1.49.7-3 1.33-.07 2.06-.15 4.14zm-323.81 48.34a17.47 17.47 0 017.27-5 1.63 1.63 0 012.25 1.23c.65-.86 1.27-1.72 1.84-2.55 3.48-5.07 6.93-10.19 10.49-15.23l-3.68.37a2 2 0 01-2-1.91 1.91 1.91 0 011.89-1.89l5.16-.51a1.6 1.6 0 011.15.37q2.6-3.6 5.31-7.11l-.59.32c-2.15 1.16-4.13-2.16-2-3.32l6.28-3.38q-.44-1.92-.9-3.84a1.67 1.67 0 01-1.27 1.14l-6.24 1a2 2 0 01-2.39-1.37 1.85 1.85 0 011.33-2.31l6.24-1a2.22 2.22 0 011.83.49c-.9-3.75-1.84-7.5-2.84-11.25q-.84-3.15-1.64-6.32l-1.65-.21a2 2 0 01-2-1.91 1.86 1.86 0 011.89-1.89l.76.1q-1.55-6.39-2.86-12.83l-.59-.34a1.88 1.88 0 01-.11-3.22q-.78-4.09-1.43-8.2a83.94 83.94 0 01-13 4.55l-.86 1.5a1.86 1.86 0 011.3.25l5 2.86a1.88 1.88 0 01-1.88 3.26l-5-2.86a1.86 1.86 0 01-.87-1l-4 7 1.47.56c2.32.88 1.42 4.55-.91 3.66l-2.45-.93-8 13.93 2.08.22c2.46.27 2.55 4.07.08 3.8l-4.21-.46-11.61 20.18 4.1-.1a1.9 1.9 0 01.08 3.8l-5.86.15a2.14 2.14 0 01-.5 0l-4.79 8.33 3.23-.27c2.48-.2 2.53 3.6.08 3.8l-5.61.46-.84 1.45 8.91 5.13a9.29 9.29 0 001.18-.49 2 2 0 012.67 2.71l6.39 3.67a7 7 0 014-2 2 2 0 012.39 1.37 1.85 1.85 0 01-1.33 2.31 4.26 4.26 0 00-1.39.39l8.15 4.69a1.86 1.86 0 01.5-1.35zm13.28-70.65a1.9 1.9 0 012.33-1.33l3.23 1a2 2 0 011.42 2.33 1.9 1.9 0 01-2.33 1.33l-3.23-1a2 2 0 01-1.42-2.33zm12.25 16.92c2.28 1 .38 4.29-1.88 3.26l-9-4.1c-2.28-1-.38-4.29 1.88-3.26zm-21.77-7.08a1.91 1.91 0 012.33-1.33l2.53.52a2 2 0 011.42 2.33 1.91 1.91 0 01-2.33 1.33l-2.53-.52a2 2 0 01-1.41-2.34zm2.68 11.28c-2-1.56.77-4.18 2.71-2.63a13.92 13.92 0 005.83 2.7c2.45.54 1.51 4.2-.91 3.66a18.33 18.33 0 01-7.62-3.74zm12 13.45a1.93 1.93 0 01-2.33 1.33 11.55 11.55 0 00-6 .62 2 2 0 01-2.39-1.37 1.89 1.89 0 011.33-2.31 15.33 15.33 0 017.94-.6 2 2 0 011.49 2.32zm-28.62-8.33a1.9 1.9 0 011.89-1.89l7-.58a2 2 0 012 1.91 1.9 1.9 0 01-1.89 1.89l-7 .58a2 2 0 01-1.95-1.92zm2.88 9.43a1.94 1.94 0 012.33-1.33l4.35.65a2 2 0 011.47 2.32 1.94 1.94 0 01-2.33 1.33l-4.35-.65a2 2 0 01-1.43-2.33zm12.58 11l5.85-.31c2.49-.13 2.55 3.67.08 3.8l-5.85.31c-2.45.16-2.5-3.64-.01-3.77zm-19.23-.45a1.87 1.87 0 01.55-1.36 2.08 2.08 0 011.34-.53l2.9-.33c1.07-.12 1.91 1 2 1.91a1.87 1.87 0 01-.55 1.36 2.08 2.08 0 01-1.34.53l-2.9.33c-1.06.18-1.9-.96-1.96-1.89zm15 10.35l6.64-1.67c2.39-.6 3.45 3.08 1.06 3.68l-6.58 1.73c-2.39.57-3.45-3.11-1.06-3.71zm-13.66.71a1.86 1.86 0 011.33-2.31l3.32-.84a2 2 0 012.39 1.37 1.86 1.86 0 01-1.33 2.31l-3.32.84a2 2 0 01-2.32-1.34zm309.37-15.71q-1.65 1.54-3.41 3c2.08 6.33 4.33 12.6 6.87 18.76l10.28-17.86q-1.42-8.18-2.74-16.39a99.07 99.07 0 01-11 12.49zm-71.54 136.59c-.32-6.57 1.78-13 2.13-19.5a60.22 60.22 0 00-1.4-14.62 2.06 2.06 0 01-.2 1.05c-1.16 2.5-5.16.61-4-1.89.92-2 3.62-1.2 4.12.45-.86-4.38-1.87-8.75-2.5-13.15l-.16.07a2.26 2.26 0 01-1.68-.1 2.3 2.3 0 01-1.15-1.23 2.18 2.18 0 01.05-1.65l.32-.68a2.17 2.17 0 011.22-1.1 1.89 1.89 0 01.89-.11v-.06c-8.67.58-17.54.67-25.21 3.08a2 2 0 011 2.74c-1.12 2.4-4.84.75-4.11-1.59a26.5 26.5 0 00-7.56 4.77c-5 4.53-7.74 10.91-10.65 17q-4.14 8.63-9 16.87l54.41 31.31 6.12-10.64a33.18 33.18 0 01-2.64-11.02zm-14.3-46.72c1.16-2.5 5.16-.61 4 1.89s-5.16.6-4-1.9zm10.81 42.58c-1.16 2.5-5.16.61-4-1.89s5.17-.61 4.01 1.89zm-12.4-25c-1.16 2.5-5.16.61-4-1.89s5.17-.62 4.02 1.88zm-17-7.18c1.16-2.5 5.16-.61 4 1.89s-5.14.58-3.98-1.9zm29.92 20c-1.16 2.5-5.16.61-4-1.89s5.19-.64 4.03 1.83zM320.53 1063l.39.18a2.14 2.14 0 01-1.8 3.88l-.39-.18a2.14 2.14 0 011.8-3.88zm22.62 23c-1.16 2.5-5.16.61-4-1.89s5.16-.58 4 1.89zm-16.85-9.62a2.31 2.31 0 011.68.1l.7.33a2.35 2.35 0 011.15 1.23 2.09 2.09 0 01-1.28 2.74 2.31 2.31 0 01-1.68-.1l-.7-.33a2.35 2.35 0 01-1.15-1.23 2.09 2.09 0 011.28-2.74zm-12-1.51c1.16-2.5 5.16-.61 4 1.89s-5.19.63-4.03-1.87zm13.42 24.66c1.16-2.5 5.16-.61 4 1.89s-5.19.58-4.03-1.87zm31.13 15.52c-1.16 2.5-5.16.61-4-1.89s5.15-.58 3.97 1.91zm-47.36-27.35c-1.16 2.5-5.16.61-4-1.89s5.13-.58 3.97 1.92zm12 .66l.17-.38c1.16-2.5 5.16-.61 4 1.89l-.17.38c-1.21 2.52-5.2.63-4.04-1.87zm18.37 10.33c1.16-2.5 5.16-.61 4 1.89s-5.21.63-4.04-1.86zm88.69-105.76A108 108 0 01417 974.45a58.29 58.29 0 01-1 9.3c-.3 1.5-.68 3-1.12 4.44 2.51 3.32 5.16 6.53 8 9.59 2.44-1.71 5-3.37 7.67-4.85zm-93.74-158.44q3.81-3 7.8-5.85-.1-1.79-.27-3.58c-2.59 3.09-5.14 6.21-7.53 9.43zm77.81 168.89q-2.14-1.87-4.22-3.81l-.56 1.23q-1.28 2.77-2.63 5.51l1.15.89c2.14-1.2 4.21-2.46 6.26-3.82z" transform="translate(-105.25 -649.35)"/><path d="M119.54 962a1.9 1.9 0 00-.08-3.8l-4.1.1-2.18 3.8a2.14 2.14 0 00.5 0zm8.07 7.51a2.08 2.08 0 001.34-.53 1.87 1.87 0 00.55-1.36c-.06-.92-.9-2-2-1.91l-2.9.33a2.08 2.08 0 00-1.34.53 1.87 1.87 0 00-.55 1.36c.06.92.9 2 2 1.91zm7.55-9.17a1.94 1.94 0 002.34-1.34 2 2 0 00-1.42-2.33l-4.35-.65a1.94 1.94 0 00-2.33 1.33 2 2 0 001.42 2.33zm.28-11.08a1.9 1.9 0 001.89-1.89 2 2 0 00-2-1.91l-7 .58a1.9 1.9 0 00-1.89 1.89 2 2 0 002 1.91zm-4.34-14.52l-2.08-.22-2.02 3.57 4.21.46c2.44.26 2.35-3.55-.11-3.81zm20.23 3.03l9 4.1c2.26 1 4.16-2.22 1.88-3.26l-9-4.1c-2.26-1.03-4.21 2.22-1.88 3.26zm3.26-12.77a1.9 1.9 0 002.33-1.33 2 2 0 00-1.42-2.33l-3.23-1a1.9 1.9 0 00-2.33 1.33 2 2 0 001.42 2.33zm5.19-11.82l.59.34q-.36-1.78-.7-3.56a1.88 1.88 0 00.11 3.22zm-15.41 21.2a1.91 1.91 0 002.33-1.33 2 2 0 00-1.42-2.33l-2.53-.52a1.91 1.91 0 00-2.33 1.33 2 2 0 001.42 2.33zm-3.97-16.53l-1.47-.56-1.93 3.3 2.45.93c2.37.88 3.27-2.79.95-3.67zm8.4-3.67a1.88 1.88 0 001.88-3.26l-5-2.86a1.86 1.86 0 00-1.3-.25l-1.38 2.5a1.86 1.86 0 00.87 1zm-3.03 40.34a1.89 1.89 0 00-1.33 2.31 2 2 0 002.39 1.37 11.55 11.55 0 016-.62 1.93 1.93 0 002.33-1.33 2 2 0 00-1.42-2.33 15.33 15.33 0 00-7.97.6zm5.87-11.65a13.92 13.92 0 01-5.83-2.7c-1.94-1.55-4.66 1.07-2.71 2.63a18.33 18.33 0 007.62 3.73c2.43.53 3.37-3.13.92-3.66zm12.17 14.22c-2.16 1.16-.19 4.48 2 3.32l.59-.32q2-2.55 4-5l-.31-1.35zM138.82 982l6.64-1.67c2.39-.6 1.34-4.29-1.06-3.68l-6.64 1.67c-2.39.57-1.33 4.25 1.06 3.68zm9.08-10.12c2.46-.13 2.41-3.93-.08-3.8l-5.85.31c-2.46.13-2.41 3.93.08 3.8zm14.59-45.63a1.86 1.86 0 00-1.89 1.89 2 2 0 002 1.91l1.65.21q-.49-2-1-3.91zm4.37 21.08l-6.24 1a1.85 1.85 0 00-1.33 2.31 2 2 0 002.39 1.37l6.24-1a1.67 1.67 0 001.27-1.14l-.49-2a2.22 2.22 0 00-1.84-.54zm-51.52 33.14a9.29 9.29 0 01-1.18.49l3.86 2.22a2 2 0 00-2.68-2.71zm-3.73-10.34l-3.23.27-2.3 4 5.61-.46c2.45-.22 2.4-4.02-.08-3.81zm17.81 18.41a1.85 1.85 0 001.33-2.31 2 2 0 00-2.39-1.37 7 7 0 00-4 2L128 989a4.26 4.26 0 011.42-.46zm.39-9.01a1.86 1.86 0 001.33-2.31 2 2 0 00-2.39-1.37l-3.32.84a1.86 1.86 0 00-1.33 2.31 2 2 0 002.39 1.37zm14.1 11.96c.79-1 1.55-2 2.27-2.93a1.63 1.63 0 00-2.25-1.23 17.47 17.47 0 00-7.27 5 1.86 1.86 0 00-.46 1.31l2.95 1.7a2 2 0 00.27-.26 14.06 14.06 0 014.49-3.59zm16-24.66l-5.16.51a1.91 1.91 0 00-1.89 1.89 2 2 0 002 1.91l3.68-.37q1.27-1.8 2.55-3.58a1.6 1.6 0 00-1.18-.36z" transform="translate(-105.25 -649.35)" fill="#f7583e"/><path class="cls-6" d="M358.93 1083.47c1.16-2.5-2.83-4.39-4-1.89s2.84 4.42 4 1.89zm-23.66-30.32a2 2 0 00-1-2.74c-1.07.33-2.11.71-3.13 1.15-.71 2.34 3.01 3.99 4.13 1.59zm24.24-5.75a1.89 1.89 0 00-.89.11 2.17 2.17 0 00-1.22 1.1l-.32.68a2.18 2.18 0 00-.05 1.65 2.3 2.3 0 001.15 1.23 2.26 2.26 0 001.68.1l.16-.07c-.12-.86-.24-1.72-.33-2.58s-.13-1.5-.18-2.22zM342 1068.81c-1.16 2.5 2.83 4.39 4 1.89s-2.85-4.39-4-1.89zm-22.88-1.81a2.14 2.14 0 001.8-3.88l-.39-.18a2.14 2.14 0 00-1.8 3.88zm8.32 23.27l.17-.38c1.16-2.5-2.83-4.39-4-1.89l-.17.38c-1.15 2.5 2.84 4.39 4 1.89zm5.56-24.86c1.16-2.5-2.83-4.39-4-1.89s2.84 4.39 4 1.89zm6.16 18.73c-1.16 2.5 2.83 4.39 4 1.89s-2.84-4.39-4-1.89zm15.67 29.05c-1.16 2.5 2.83 4.39 4 1.89s-2.83-4.39-4-1.89zm-13.01-14.47c-1.16 2.5 2.83 4.39 4 1.89s-2.82-4.39-4-1.89zm12.57-4.9c-1.16 2.5 2.83 4.39 4 1.89s-2.84-4.39-4-1.89zm-36.12-17.04c1.16-2.5-2.83-4.39-4-1.89s2.84 4.39 4 1.89zm33.3-21.78c1.16-2.5-2.83-4.39-4-1.89s2.84 4.4 4 1.89zM325 1079.14a2.35 2.35 0 001.15 1.23l.7.33a2.31 2.31 0 001.68.1 2.09 2.09 0 001.28-2.74 2.35 2.35 0 00-1.15-1.23l-.7-.33a2.31 2.31 0 00-1.68-.1 2.09 2.09 0 00-1.28 2.74zm33.4-14.24c-1.16 2.5 2.83 4.39 4 1.89a2.06 2.06 0 00.2-1.05l-.07-.39c-.53-1.66-3.2-2.43-4.13-.45zm-50.93 20.94c-1.16 2.5 2.83 4.39 4 1.89s-2.84-4.39-4-1.89zm24.22 15.6c1.16-2.5-2.83-4.39-4-1.89s2.84 4.39 4 1.89z" transform="translate(-105.25 -649.35)"/><path class="cls-7" d="M382.46 731.57c2.17 9.09 4.73 18.38 3.52 27.54-1.16 8.75-5.67 16.59-10.38 24a343.11 343.11 0 01-25.23 34.72c-2 2.41-4 4.81-6 7.22q.17 1.79.27 3.58 3.31-2.34 6.74-4.52c9.45-6 23.13-10.63 31.4-2.94 5.15-8.08 12.06-14 18.75-20.2-1.56-1.18-1.79-4 .61-4.78a2.6 2.6 0 013.11 1.22 77.31 77.31 0 007.81-8.83c11.11-14.94 15.31-35.4 32.27-45.58a40.16 40.16 0 015.7-2.82l-6-3.44a2.43 2.43 0 01-1.72 3c-3.29 1-5-4-1.91-5.1l-57.56-33.12c-1.95 2.78-3.85 5.47-5.84 8q1.86 11.1 4.46 22.05zm6.22 71.94c-3.35 1-5.1-4.14-1.76-5.16s5.08 4.14 1.77 5.16zm27.65-26.87a2.33 2.33 0 01.41 1 2.85 2.85 0 01.28 1 2.69 2.69 0 01-.67 1.9 2.94 2.94 0 01-3.53.62 3.34 3.34 0 01-1.58-1.87 3.12 3.12 0 01.13-2.39 2.92 2.92 0 015-.27zm8.23-18.73c-3.35 1-5.1-4.14-1.76-5.16s5.11 4.14 1.76 5.16z" transform="translate(-105.25 -649.35)"/><path class="cls-7" d="M308.88 131.42h.01-.02.01z"/><path class="cls-7" d="M433.41 963.26a99.07 99.07 0 0011-12.53q-.52-3.18-1-6.36a62.37 62.37 0 01-18.48-.45l-1.82-.35c2.21 7.59 4.44 15.17 6.91 22.66q1.74-1.43 3.39-2.97z" transform="translate(-105.25 -649.35)"/><path class="cls-8" d="M249.46 842.25c-3.94-10.3-3-21.47-.07-32-9.34 2.08-18.66 4.66-28.75 6.52q-1.31.24-2.61.43a14.28 14.28 0 01.69 5.72c-.63 8.16-6.11 14.38-11.58 20.72.46.71.93 1.41 1.42 2.1 3.48 5 8.34 9.68 14.36 10.28-7.41-.78-15.14-1.89-22.2-4.31a37.84 37.84 0 00-2.05 3.35c-3.54 6.58-4.67 14.25-8.08 20.89-4.73 9.19-17.77 19.4-32.34 25.83q.65 4.11 1.43 8.2.34 1.78.7 3.56 1.31 6.44 2.86 12.83.48 2 1 3.91.8 3.17 1.64 6.32c1 3.75 1.94 7.5 2.84 11.25l.49 2q.46 1.92.9 3.84l.31 1.35c3.11-3.76 6.37-7.4 9.86-10.84a126.1 126.1 0 0150.11-30.2c12.42-4 25.6-6.1 37.18-11.94a67.88 67.88 0 008.5-5.13c-6.34-9.15-8.67-21.66-13.85-32-3.89-7.76-9.68-14.6-12.76-22.68zm4.97-45.87c5.09-11.77 11.38-23.1 14.5-35.55v-.09c-21.51 1.47-31.28 24.28-53.86 25.92l-1 .06-6 10.4c6.7.25 13.42.71 20.11.74 9.1.05 17.23-2.04 26.25-1.48z" transform="translate(-105.25 -649.35)"/><path class="cls-8" d="M269 760.63c3.64-14.66 3.06-29.78 7.34-44.29.39-1.33.83-2.63 1.32-3.91-4-5.93-7-12.35-10-18.84l-42.52 73.89c7.16-2.22 14.09-5.15 21.28-7.19 8.95-2.53 14.58-.01 22.58.34zm144 27.96a77.31 77.31 0 01-7.81 8.83 2.61 2.61 0 01-3.72 3.56c-6.68 6.23-13.6 12.11-18.75 20.2.16.15.32.29.47.44 3.38 3.42 4.73 8.23 6.85 12.51s5.88 8.55 10.67 8.57c3.24 0 6-1.93 8.79-3.54.48-.28 1-.56 1.47-.82a2.37 2.37 0 011.75-1.85 2.62 2.62 0 011.86.08 49.92 49.92 0 0110-3.2 12.77 12.77 0 016.27-.1c3.87 1.18 6.16 5.41 6.32 9.37s-1.33 7.73-2.71 11.4a277.69 277.69 0 00-16.59 72c1.79 5.83 3.48 11.68 5.19 17.54l1.82.35a62.37 62.37 0 0018.48.45q-1.74-11-3.36-21.89c-2.41-16.21-.61-32.54 4.06-48 2.23-7.4 5.44-14.44 8.25-21.59 3.19-8.11 5.87-16.36 6-25.39 1.4 5 2.55 10.37 1.34 15.39-1 4.3-2.12 7.5-2 11.92.1 5 0 10.31-.37 15.34 0 .49-.06 1-.09 1.48a2.73 2.73 0 01-.21 4c-.48 12.58.56 24.52 2.32 37.33a167.37 167.37 0 011.27 26.92q1.53-.63 3-1.33l21-36.42c-3.12-5.91-3.86-13.17-2.89-19.78 1.35-9.12 3.56-18.59 5.06-28.15-2.92.24-4.24-4.33-1.12-5.28a2.62 2.62 0 011.85.08 101.58 101.58 0 00.84-13 56.39 56.39 0 00-3.07-16.46 2.93 2.93 0 01-1.33-4.06c-3.42-10.1-7.35-20.09-5.84-30.12a24.42 24.42 0 01.64-2.95l-.47.14a2.91 2.91 0 01-2.09-.2 2.85 2.85 0 01-1.38-1.59 2.61 2.61 0 011.72-3.37l.88-.27a2.91 2.91 0 012.09.2 2.45 2.45 0 01.89.72c2.47-5.29 6.4-10 10.21-14.68a2.69 2.69 0 01-.24-.49L451 740.2a40.16 40.16 0 00-5.7 2.82c-16.96 10.17-21.17 30.64-32.3 45.57zm-10 47.89c-3.35 1-5.1-4.14-1.75-5.16s5.17 4.14 1.83 5.16zm-11.77-17.54c-3.35 1-5.1-4.14-1.75-5.16s5.17 4.14 1.83 5.16zm50.22 56.75a2.61 2.61 0 01-1.72 3.37l-.88.27a2.91 2.91 0 01-2.09-.2 2.85 2.85 0 01-1.38-1.59 2.61 2.61 0 011.72-3.37l.88-.27a2.91 2.91 0 012.09.2 2.85 2.85 0 011.46 1.59zm11-30.26c-3.35 1-5.1-4.14-1.76-5.16s5.19 4.15 1.85 5.17zm-21.02-13.73c-3.35 1-5.1-4.14-1.75-5.16s5.09 4.14 1.75 5.16zM407.09 817c-3.35 1-5.1-4.14-1.75-5.16s5.09 4.16 1.75 5.16zm22.31 1.58l-.24.47c-1.57 3.07-6.48.54-4.91-2.53l.24-.47c1.56-3.05 6.51-.51 4.91 2.56zm40.07 33c-3.35 1-5.1-4.14-1.76-5.16s5.1 4.19 1.75 5.21zm-50.12-52.69l-.3-.87a2.74 2.74 0 01.14-2.05 2.65 2.65 0 011.58-1.31 2.85 2.85 0 012.09.2 2.91 2.91 0 011.38 1.59l.3.87a2.74 2.74 0 01-.14 2.05 2.65 2.65 0 01-1.58 1.31 2.85 2.85 0 01-2.09-.2 2.91 2.91 0 01-1.39-1.55zM472 833.66c-3.35 1-5.1-4.14-1.76-5.16s5.13 4.14 1.76 5.16zm-15.5-16.31c-3.35 1-5.1-4.14-1.75-5.16s5.11 4.15 1.77 5.16zm-18.2-16.54c-3.35 1-5.1-4.14-1.76-5.16s5.12 4.14 1.78 5.16zm11.79-53.43l.48-.15c3.35-1 5.1 4.14 1.76 5.16l-.48.15c-3.33 1.01-5.08-4.14-1.74-5.16zm-17.73 21.67l-.16-.48c-1.13-3.32 4.07-4.9 5.2-1.58l.16.48c1.15 3.33-4.05 4.9-5.18 1.58zm3.53 16.17c-3.35 1-5.1-4.14-1.76-5.16s5.13 4.15 1.79 5.16zm32.77 8.31l.3.87a2.74 2.74 0 01-.14 2.05 2.65 2.65 0 01-1.58 1.31 2.85 2.85 0 01-2.09-.2 2.91 2.91 0 01-1.38-1.59l-.3-.87a2.74 2.74 0 01.14-2.05 2.65 2.65 0 011.58-1.31 2.85 2.85 0 012.09.2 2.91 2.91 0 011.4 1.59zm-18.44-13l-.65-.33c-3.17-1.63-.73-6.39 2.43-4.76l.64.33c3.2 1.66.77 6.42-2.4 4.79zm15.15-11c-3.35 1-5.1-4.14-1.76-5.16s5.12 4.16 1.78 5.17z" transform="translate(-105.25 -649.35)"/><path d="M312.95 1073.3c2.9-6.06 5.66-12.43 10.65-17a26.5 26.5 0 017.56-4.77c1-.43 2.06-.81 3.13-1.15 7.68-2.41 16.55-2.5 25.21-3.08-1.54-25.27 17.94-28.49 36.87-35.05a103.45 103.45 0 01-11.48-5.65c-14.89-8.5-27.63-20.18-38.77-33a246.58 246.58 0 01-15.88-20.6c-7.93-11.38-14.69-21-27.57-27.48 3 1.53 7.63 1.33 11 2.77 3 1.27 5.79 2.24 8.78 3.35 8.54 3.17 17.06 8.42 24.79 13.22a119.26 119.26 0 0124.92 20c8 8.59 14.23 18.45 21.51 27.55a86.71 86.71 0 0013.55 13.9q1.34-2.74 2.63-5.51l.56-1.23q-4.5-4.2-8.7-8.72c-15.43-16.63-26.8-35.74-35.17-56.53-6.2-15.41-11.42-34.18-20.93-49.06a2.86 2.86 0 01-2.71-4 61.59 61.59 0 00-5.83-6.9 42.92 42.92 0 00-10.79-7.94c16-1.33 30.17 20.14 37.79 31.5 13 19.44 22.11 41 33 61.57a211.91 211.91 0 0017.77 28.65c.44-1.46.81-2.94 1.12-4.44a58.29 58.29 0 001-9.3l-.06-.1c-11-18.85-16.85-39.86-22.38-60.64-2.8-10.52-5.55-21.06-8.93-31.43-2.84-8.71-5.68-20.48-12-28.58a2.6 2.6 0 01-1.2.74c-3 .92-4.74-3.2-2.59-4.75a21.81 21.81 0 00-4.79-3.15c2.31 1.1 4.57 1.72 6.78 2.63a2.5 2.5 0 011.33.6 16.69 16.69 0 013 1.83c2.79 2.17 5.28 4.85 7.94 7.18.57.5 1.12 1 1.66 1.56a2.66 2.66 0 011.06-.6c3-.91 4.72 3.14 2.63 4.72A98.73 98.73 0 01397.7 877c2.67-.52 4.18 2.93 2.56 4.57 7.68 14.16 13 29.18 17.65 44.42a277.69 277.69 0 0116.59-72c1.39-3.67 2.87-7.44 2.71-11.4s-2.45-8.19-6.32-9.37a12.77 12.77 0 00-6.27.1 49.92 49.92 0 00-10 3.2c2 .89 2.53 4.27-.11 5.07a2.81 2.81 0 01-3.5-3.31c-.49.27-1 .54-1.47.82-2.75 1.61-5.55 3.56-8.79 3.54-4.79 0-8.54-4.29-10.67-8.57s-3.47-9.08-6.85-12.51c-.15-.16-.31-.3-.47-.44-8.27-7.69-21.95-3.07-31.4 2.94q-3.43 2.18-6.74 4.52-4 2.81-7.8 5.85c-1.81 2.43-3.52 4.91-5.09 7.48a68.92 68.92 0 00-4.14 7.8c-4.55 10.17-6.2 21.41-9.66 32-4.61 14.15-16.16 34.15-33.77 23a28.05 28.05 0 01-8.08-7.91 67.88 67.88 0 01-8.5 5.13c-11.58 5.85-24.76 8-37.18 11.94a126.1 126.1 0 00-50.13 30.25c-3.49 3.45-6.75 7.08-9.86 10.84q-2.06 2.48-4 5-2.72 3.51-5.31 7.11-1.29 1.78-2.55 3.58c-3.56 5-7 10.16-10.49 15.23-.57.84-1.19 1.69-1.84 2.55s-1.48 1.93-2.27 2.93c-1.17 1.48-2.39 3-3.6 4.52l52.39 30.14v-2.83c-.08-5.39-.11-11 2.29-15.77 3.47-6.89 9.93-5 14.68-8.87 4.42-3.58 7.12-10.88 11.61-15 21.19-19.53 40.25-1.72 47.9 22.36 4.52 14.21 5.1 29.22 8.52 43.7 1.84 7.78 4.52 15.59 3.91 23.48a30.36 30.36 0 01-.54 3.82l22.84 13.14q4.85-8.12 9-16.75zm36-208.53a2.61 2.61 0 01-1.72 3.37l-.88.27a2.91 2.91 0 01-2.09-.2 2.85 2.85 0 01-1.38-1.59 2.61 2.61 0 011.72-3.37l.88-.27a2.91 2.91 0 012.09.2 2.85 2.85 0 011.43 1.59zm19 32.83c-3.35 1-5.1-4.14-1.75-5.16s5.11 4.14 1.8 5.16zm19.25.37l.3.87a2.74 2.74 0 01-.14 2.05 2.65 2.65 0 01-1.58 1.31 2.85 2.85 0 01-2.09-.2 2.91 2.91 0 01-1.38-1.59l-.3-.87a2.74 2.74 0 01.14-2.05 2.65 2.65 0 011.58-1.31 2.85 2.85 0 012.09.2 2.91 2.91 0 011.4 1.62zm-12.61-14.44c-3.35 1-5.1-4.14-1.75-5.16s5.11 4.14 1.77 5.16zm-13.5-14.13c-3.35 1-5.1-4.14-1.76-5.16s5.11 4.14 1.76 5.16zM359 854.68c-3.35 1-5.1-4.14-1.76-5.16s5.09 4.15 1.76 5.16zm16.69-16.47c3.35-1 5.1 4.14 1.76 5.16s-5.12-4.14-1.78-5.16zm38.68 37.08c-3.35 1-5.1-4.14-1.76-5.16s5.08 4.14 1.74 5.16zm-11.18-15.8c-3.35 1-5.1-4.14-1.75-5.16s5.07 4.14 1.73 5.16zM390.55 848c-3.35 1-5.1-4.14-1.75-5.16s5.09 4.16 1.75 5.16zm38.63-.16c3.35-1 5.1 4.14 1.76 5.16s-5.11-4.17-1.77-5.19zm-14.89 1.61a2.61 2.61 0 011.72-3.37l.88-.27a2.91 2.91 0 012.09.2 2.85 2.85 0 011.38 1.59 2.61 2.61 0 01-1.72 3.37l-.88.27a2.91 2.91 0 01-2.09-.2 2.85 2.85 0 01-1.39-1.62zm12.58 5.81c3.35-1 5.1 4.14 1.76 5.16s-5.11-4.17-1.77-5.19zM377.28 822c3.35-1 5.1 4.14 1.76 5.16s-5.11-4.16-1.76-5.16zM331 855c3.35-1 5.1 4.14 1.76 5.16S327.65 856 331 855zm13.81 42.05l.3.87A2.74 2.74 0 01345 900a2.65 2.65 0 01-1.58 1.31 2.85 2.85 0 01-2.09-.2 2.91 2.91 0 01-1.38-1.59l-.3-.87a2.74 2.74 0 01.14-2.05 2.65 2.65 0 011.58-1.31 2.85 2.85 0 012.09.2 2.91 2.91 0 011.35 1.58zm-20-14.21l.48-.15c3.35-1 5.1 4.14 1.75 5.16l-.48.15c-3.35 1-5.1-4.12-1.76-5.14z" transform="translate(-105.25 -649.35)" fill="#f2d2d5"/><path class="cls-6" d="M490.56 763.31c-3.81 4.69-7.74 9.39-10.21 14.68a3.42 3.42 0 01.49.87 2.61 2.61 0 01-1.72 3.37l-.41.12a24.42 24.42 0 00-.64 2.95c-1.51 10 2.42 20 5.84 30.12a2.48 2.48 0 011.42-1c3.35-1 5.1 4.14 1.76 5.16a2.62 2.62 0 01-1.84-.07 56.39 56.39 0 013.07 16.46 101.58 101.58 0 01-.84 13c2 .88 2.55 4.28-.1 5.08a3 3 0 01-.64.12c-1.5 9.56-3.72 19-5.06 28.15-1 6.61-.24 13.88 2.89 19.78l37.33-64.87a2.43 2.43 0 011.71-3l22.21-38.61a3.1 3.1 0 01-.8-1.35l-24.44-14.06a2.37 2.37 0 01-1.79 2.18c-3 .91-4.72-3.14-2.63-4.72l-22.72-13.07a3 3 0 01-1.78-.28 2.93 2.93 0 01-1.1-1.01zm10.81 77.84a2.85 2.85 0 01-2.09-.2 2.91 2.91 0 01-1.38-1.59l-.3-.87a2.74 2.74 0 01.14-2.05 2.65 2.65 0 011.58-1.31 2.85 2.85 0 012.09.2 2.91 2.91 0 011.38 1.59l.3.87a2.74 2.74 0 01-.14 2.05 2.65 2.65 0 01-1.59 1.31zm16.54-28a2.72 2.72 0 01-.14 2.05l-.58 1.14a2.73 2.73 0 01-1.58 1.31 2.82 2.82 0 01-2.09-.2 2.87 2.87 0 01-1.38-1.59 2.72 2.72 0 01.14-2.05l.58-1.14a2.73 2.73 0 011.58-1.31 2.82 2.82 0 012.09.2 2.87 2.87 0 011.37 1.56zm-28.17-12c-3.35 1-5.1-4.14-1.76-5.16s5.09 4.11 1.75 5.13zm16.12-3.53a2.61 2.61 0 01-1.72 3.37l-.88.27a2.91 2.91 0 01-2.09-.2 2.85 2.85 0 01-1.38-1.59 2.61 2.61 0 011.72-3.37l.88-.27a2.91 2.91 0 012.09.2 2.85 2.85 0 011.36 1.56zm25.33-8.62c3.35-1 5.1 4.14 1.75 5.16s-5.09-4.16-1.75-5.16zm-26.32-14.13l.3.87a2.74 2.74 0 01-.14 2.05 2.65 2.65 0 01-1.58 1.31 2.85 2.85 0 01-2.09-.2 2.91 2.91 0 01-1.36-1.6l-.3-.87a2.74 2.74 0 01.14-2.05 2.65 2.65 0 011.58-1.31 2.85 2.85 0 012.09.2 2.91 2.91 0 011.36 1.58zM190.58 875.93c3.42-6.64 4.54-14.31 8.08-20.89a37.84 37.84 0 012.05-3.35A39.42 39.42 0 01185 842.2c-.6-.61-1.17-1.25-1.73-1.9l-38 66a83.94 83.94 0 0013-4.55c14.53-6.42 27.58-16.62 32.31-25.82zm7.15-44.72c3.95 3.44 6.55 8 9.41 12.41 5.47-6.34 10.95-12.56 11.58-20.72a14.28 14.28 0 00-.69-5.72 63.39 63.39 0 01-19.74-.18l-1.49-.27-5.88 10.22a27.28 27.28 0 016.81 4.26z" transform="translate(-105.25 -649.35)"/><path d="M277.64 712.43c-.48 1.28-.93 2.58-1.32 3.91-4.32 14.51-3.7 29.66-7.32 44.29h2c-.68 0-1.36 0-2 .08v.09c-3.13 12.45-9.41 23.78-14.5 35.55 1.3.08 2.62.22 4 .42 4.28.66 8.61 2.59 12.87 4.62 5.36 2.56 10.59 5.28 15.46 5.81-13.56-1.49-25.46.34-37.34 3-3 10.57-3.86 21.74.07 32 3.08 8.07 8.87 14.91 12.77 22.66 5.18 10.31 7.5 22.82 13.85 32a28.05 28.05 0 008.08 7.91c17.61 11.13 29.16-8.86 33.77-23 3.45-10.6 5.1-21.84 9.66-32a68.92 68.92 0 014.14-7.8c1.57-2.57 3.29-5.05 5.09-7.48 2.39-3.22 4.94-6.34 7.52-9.43 2-2.41 4-4.81 6-7.22a343.11 343.11 0 0025.23-34.72c4.71-7.41 9.22-15.26 10.38-24 1.22-9.16-1.35-18.46-3.52-27.54q-2.61-10.94-4.49-22-1.06-6.21-1.88-12.45l-58.93-33.91c-4.94 4.45-9.55 9.25-14.14 14.05-10.09 10.43-20.28 21.49-25.45 35.16zm32 179a2.74 2.74 0 01-.14 2.05 2.65 2.65 0 01-1.58 1.31 2.85 2.85 0 01-2.09-.2 2.91 2.91 0 01-1.38-1.59l-.3-.87a2.74 2.74 0 01.14-2.05 2.65 2.65 0 011.58-1.31 2.85 2.85 0 012.09.2 2.91 2.91 0 011.38 1.59z" transform="translate(-105.25 -649.35)" fill="#ff7d6c"/><path class="cls-11" d="M422.8 997.78c-2.82-3.06-5.47-6.27-8-9.59a211.91 211.91 0 01-17.77-28.65c-10.89-20.56-20-42.13-33-61.57-7.62-11.36-21.81-32.83-37.79-31.5a42.92 42.92 0 0110.79 7.94 61.59 61.59 0 015.83 6.9 2.42 2.42 0 011.6-1.32c3.36-1 5.06 4.19 1.7 5.17a3.05 3.05 0 01-.59.11c9.51 14.88 14.72 33.64 20.93 49.06 8.36 20.78 19.73 39.9 35.17 56.53q4.19 4.51 8.7 8.72 2.08 1.94 4.22 3.81c2.78-1.83 5.47-3.75 8.21-5.61zm36.53-84.85c-1.76-12.8-2.8-24.74-2.32-37.33a2.8 2.8 0 01-.83.4c-3.35 1-5.1-4.14-1.76-5.16a2.56 2.56 0 012.79.78c0-.49.06-1 .09-1.48.37-5 .47-10.29.37-15.34-.09-4.42 1-7.62 2-11.92 1.21-5 .05-10.34-1.34-15.39-.16 9-2.84 17.27-6 25.39-2.81 7.14-6 14.19-8.25 21.59-4.67 15.47-6.47 31.79-4.06 48q1.62 10.91 3.36 21.89l1 6.36q1.33 8.2 2.74 16.39L460.46 944q.08-2.07.13-4.14a167.37 167.37 0 00-1.26-26.93z" transform="translate(-105.25 -649.35)"/><g class="leaf one"><path class="cls-11" d="M408.35 1007.21l-1.15-.89a86.71 86.71 0 01-13.55-13.9c-7.29-9.1-13.56-19-21.51-27.55a119.26 119.26 0 00-24.92-20c-7.72-4.79-16.24-10-24.79-13.22-3-1.11-5.82-2.07-8.78-3.35-3.35-1.44-7.95-1.25-11-2.77 12.88 6.48 19.64 16.1 27.57 27.48a246.58 246.58 0 0015.89 20.56c11.14 12.86 23.88 24.53 38.77 33a103.45 103.45 0 0011.48 5.65c2.44-.85 4.88-1.75 7.26-2.76 1.63-.63 3.2-1.46 4.73-2.25z" transform="translate(-105.25 -649.35)"/></g><path class="cls-4" d="M218 817.17q1.31-.19 2.61-.43c10.09-1.86 19.4-4.44 28.75-6.52 11.87-2.64 23.78-4.47 37.34-3-4.87-.54-10.11-3.26-15.46-5.81-4.26-2-8.59-4-12.87-4.62a41.73 41.73 0 00-4-.42c-9-.56-17.16 1.53-26.25 1.49-6.68 0-13.4-.49-20.11-.74l-11.28 19.6 1.49.27a63.39 63.39 0 0019.78.18zm51-56.43c.66 0 1.33-.07 2-.08h-2c-8-.35-13.61-2.87-22.57-.33-7.19 2-14.12 5-21.28 7.19l-11.07 19.23 1-.06c22.6-1.69 32.36-24.47 53.92-25.95zm-68.28 90.95c7.06 2.42 14.79 3.53 22.2 4.31-6-.59-10.88-5.32-14.36-10.28-.48-.69-1-1.39-1.42-2.1-2.87-4.37-5.46-9-9.41-12.41a27.28 27.28 0 00-6.81-4.26l-7.69 13.36c.56.65 1.13 1.28 1.73 1.9a39.42 39.42 0 0015.76 9.48zm77 198.03c-3.42-14.47-4-29.49-8.52-43.7-7.65-24.08-26.71-41.89-47.9-22.36-4.48 4.13-7.18 11.44-11.61 15-4.75 3.85-11.21 2-14.68 8.87-2.4 4.77-2.37 10.39-2.29 15.77v2.83l88.37 50.87a30.36 30.36 0 00.54-3.82c.61-7.87-2.07-15.69-3.91-23.46zm83.37-180.32c3.34-1 1.59-6.18-1.76-5.16s-1.58 6.18 1.76 5.16zm13.52 14.13c3.34-1 1.59-6.18-1.75-5.16s-1.6 6.18 1.75 5.16zm12.2-23.8a2.66 2.66 0 00-1.06.6 47.84 47.84 0 013.69 4.12c2.09-1.58.38-5.63-2.63-4.72zm3.74-11.73c3.34-1 1.59-6.18-1.75-5.16s-1.6 6.16 1.75 5.16zm-18.7 1.16c.45.18.89.38 1.33.6a2.5 2.5 0 00-1.33-.6zm.59 5.27a2.6 2.6 0 001.2-.74 27.09 27.09 0 00-3.79-4c-2.15 1.54-.43 5.66 2.59 4.74zm4.99-11.06c3.34-1 1.59-6.18-1.76-5.16s-1.59 6.17 1.76 5.16zM345.49 863l-.88.27a2.61 2.61 0 00-1.72 3.37 2.85 2.85 0 001.38 1.59 2.91 2.91 0 002.09.2l.88-.27a2.61 2.61 0 001.72-3.37 2.85 2.85 0 00-1.38-1.59 2.91 2.91 0 00-2.09-.2zm-4.16 32.28a2.65 2.65 0 00-1.58 1.31 2.74 2.74 0 00-.14 2.05l.3.87a2.91 2.91 0 001.38 1.59 2.85 2.85 0 002.09.2A2.65 2.65 0 00345 900a2.74 2.74 0 00.14-2.05l-.3-.87a2.91 2.91 0 00-1.38-1.59 2.85 2.85 0 00-2.13-.21zM331 855c-3.34 1-1.59 6.18 1.76 5.16S334.34 854 331 855zm13.48 25a2.42 2.42 0 00-1.6 1.32 2.86 2.86 0 002.71 4 3.05 3.05 0 00.59-.11c3.36-1.03 1.66-6.21-1.7-5.21zm12.75-30.48c-3.34 1-1.59 6.18 1.76 5.16s1.59-6.17-1.76-5.16zm67.25-33.44l-.24.47c-1.57 3.07 3.35 5.6 4.91 2.53l.24-.47c1.61-3.07-3.34-5.61-4.91-2.53zm6.45 36.92c3.34-1 1.59-6.18-1.76-5.16s-1.59 6.16 1.76 5.16zm-13.17-1.79l.88-.27a2.61 2.61 0 001.72-3.37A2.85 2.85 0 00419 846a2.91 2.91 0 00-2.09-.2l-.88.27a2.61 2.61 0 00-1.72 3.37 2.85 2.85 0 001.38 1.59 2.91 2.91 0 002.07.18zM411 838.34a2.81 2.81 0 003.5 3.31c2.64-.8 2.1-4.19.11-5.07a2.62 2.62 0 00-1.86-.08 2.37 2.37 0 00-1.75 1.84zm-7.92-1.86c3.34-1 1.59-6.18-1.75-5.16s-1.6 6.18 1.75 5.16zM377.28 822c-3.34 1-1.59 6.18 1.76 5.16s1.58-6.16-1.76-5.16zm29.81-5c3.34-1 1.59-6.18-1.75-5.16s-1.6 6.16 1.75 5.16zm24.34 14.7c3.34-1 1.59-6.18-1.75-5.16s-1.6 6.18 1.75 5.16zm-28.26 27.79c3.34-1 1.59-6.18-1.75-5.16s-1.6 6.17 1.75 5.16zm34.88 14.42l-.88.27a2.61 2.61 0 00-1.72 3.37 2.85 2.85 0 001.38 1.59 2.91 2.91 0 002.09.2l.88-.27a2.61 2.61 0 001.72-3.37 2.85 2.85 0 00-1.38-1.59 2.91 2.91 0 00-2.09-.2zm14.49-28.47c3.34-1 1.59-6.18-1.76-5.16s-1.59 6.18 1.76 5.16zM472 833.66c3.34-1 1.59-6.18-1.76-5.16s-1.57 6.18 1.76 5.16zM487.47 849a2.62 2.62 0 00-1.85-.08c-3.12.95-1.8 5.51 1.12 5.28a3 3 0 00.64-.12c2.62-.84 2.1-4.24.09-5.08zm-2.14-34.6a2.48 2.48 0 00-1.42 1 2.93 2.93 0 001.33 4.06 2.62 2.62 0 001.84.07c3.35-.99 1.6-6.15-1.75-5.13zm4.4-13.28c3.34-1 1.59-6.18-1.76-5.16s-1.59 6.18 1.76 5.16zm-33.21 16.23c3.34-1 1.59-6.18-1.75-5.16s-1.6 6.18 1.75 5.16zm-18.2-16.54c3.34-1 1.59-6.18-1.76-5.16s-1.56 6.18 1.76 5.16zm-26.96-23.9a3.12 3.12 0 00-.13 2.39 3.34 3.34 0 001.58 1.87 2.94 2.94 0 003.53-.62 2.69 2.69 0 00.67-1.9 2.85 2.85 0 00-.28-1 2.33 2.33 0 00-.41-1 2.92 2.92 0 00-5 .27zm2.76 3.86zm38.55-4.97l-.64-.33c-3.17-1.63-5.6 3.13-2.43 4.76l.65.33c3.16 1.63 5.59-3.13 2.42-4.76zm12.54 15.94a2.65 2.65 0 00-1.58 1.31 2.74 2.74 0 00-.14 2.05l.3.87a2.91 2.91 0 001.38 1.59 2.85 2.85 0 002.09.2 2.65 2.65 0 001.58-1.31 2.74 2.74 0 00.14-2.05l-.3-.87a2.91 2.91 0 00-1.38-1.59 2.85 2.85 0 00-2.09-.2zm-42.39 8.98a2.65 2.65 0 001.58-1.31 2.74 2.74 0 00.14-2.05l-.3-.87a2.91 2.91 0 00-1.38-1.59 2.85 2.85 0 00-2.09-.2 2.65 2.65 0 00-1.58 1.31 2.74 2.74 0 00-.14 2.05l.3.87a2.91 2.91 0 001.38 1.59 2.85 2.85 0 002.09.2zm14.76-33.25l-.16-.48c-1.13-3.32-6.33-1.74-5.2 1.58l.16.48c1.13 3.32 6.33 1.75 5.2-1.58zm14.77-15.08c3.34-1 1.59-6.18-1.76-5.16l-.48.15c-3.34 1-1.59 6.18 1.76 5.16zm39.32 11.96a3 3 0 001.78.28l-3.13-1.8a2.69 2.69 0 00.24.49 2.93 2.93 0 001.11 1.03zm9.73 8.71a2.65 2.65 0 00-1.58 1.31 2.74 2.74 0 00-.14 2.05l.3.87a2.91 2.91 0 001.38 1.59 2.85 2.85 0 002.09.2 2.65 2.65 0 001.58-1.31 2.74 2.74 0 00.14-2.05l-.3-.87a2.91 2.91 0 00-1.38-1.59 2.85 2.85 0 00-2.09-.2zm13.02 38.27a2.73 2.73 0 00-1.58 1.31l-.58 1.14a2.72 2.72 0 00-.14 2.05 2.87 2.87 0 001.38 1.59 2.82 2.82 0 002.09.2 2.73 2.73 0 001.58-1.31l.58-1.14a2.72 2.72 0 00.14-2.05 2.87 2.87 0 00-1.38-1.59 2.82 2.82 0 00-2.09-.2zm-11.63 25.58a2.91 2.91 0 00-1.38-1.59 2.85 2.85 0 00-2.09-.2 2.65 2.65 0 00-1.58 1.31 2.74 2.74 0 00-.14 2.05l.3.87a2.91 2.91 0 001.38 1.59 2.85 2.85 0 002.09.2 2.65 2.65 0 001.58-1.31 2.74 2.74 0 00.14-2.05zm-.42-41.11l-.88.27a2.61 2.61 0 00-1.72 3.37 2.85 2.85 0 001.38 1.59 2.91 2.91 0 002.09.2l.88-.27a2.61 2.61 0 001.72-3.37 2.85 2.85 0 00-1.38-1.59 2.91 2.91 0 00-2.09-.2zm-21.67-14.89a2.68 2.68 0 00.14-2.05 3.42 3.42 0 00-.49-.87 2.45 2.45 0 00-.89-.72 2.91 2.91 0 00-2.09-.2l-.88.27a2.61 2.61 0 00-1.72 3.37 2.85 2.85 0 001.38 1.59 2.91 2.91 0 002.09.2l.47-.14.41-.12a2.71 2.71 0 001.58-1.33zm-15.31-11.37c3.34-1 1.59-6.18-1.76-5.16s-1.63 6.18 1.76 5.16zM546.2 795l-1.2-.7a3.1 3.1 0 00.8 1.35zm-27.41-12.58a2.37 2.37 0 001.79-2.18l-4.42-2.54c-2.08 1.58-.37 5.63 2.63 4.72zm14.16 11.71c3.34-1 1.59-6.18-1.75-5.16s-1.6 6.18 1.75 5.16zm-63.49 57.5c3.34-1 1.59-6.18-1.76-5.16s-1.59 6.17 1.76 5.16zm-15.04 19.22c-3.34 1-1.59 6.18 1.76 5.16a2.8 2.8 0 00.83-.4 2.73 2.73 0 00.21-4 2.56 2.56 0 00-2.8-.76zm-40.07 4.44c3.34-1 1.59-6.18-1.76-5.16s-1.59 6.17 1.76 5.16zm14.27-14.9c3.34-1 1.59-6.18-1.76-5.16s-1.59 6.18 1.76 5.16zm-28.36 21.22c1.61-1.64.11-5.09-2.56-4.57l1.43 2.53q.57 1.01 1.13 2.04zm-16.52 14.57a2.65 2.65 0 00-1.58 1.31 2.74 2.74 0 00-.14 2.05l.3.87a2.91 2.91 0 001.38 1.59 2.85 2.85 0 002.09.2 2.65 2.65 0 001.58-1.31 2.74 2.74 0 00.14-2.05l-.3-.87a2.91 2.91 0 00-1.38-1.59 2.85 2.85 0 00-2.09-.2zm-17.53-3.74c-3.34 1-1.59 6.18 1.75 5.16s1.6-6.18-1.75-5.16zm155.68-55.21l1.71-3a2.43 2.43 0 00-1.71 3zm-78.6-97.46a2.43 2.43 0 001.72-3l-3.64-2.09c-3.11 1.12-1.37 6.09 1.92 5.09zm-9.13 40.29c-3.34 1-1.59 6.18 1.76 5.16s1.59-6.22-1.76-5.16zm-9.6-22.15c3.34-1 1.59-6.18-1.76-5.16s-1.58 6.18 1.76 5.16zm-20.7 43.45a2.56 2.56 0 001.35-3.94 2.6 2.6 0 00-3.11-1.22c-2.4.73-2.18 3.6-.61 4.78a2.56 2.56 0 002.37.38zm-12.55 17.58c3.34-1 1.59-6.18-1.75-5.16s-1.56 6.22 1.75 5.16zm-2.62-15.43c3.34-1 1.59-6.18-1.76-5.16s-1.59 6.18 1.76 5.16zm-82.85 85.23a2.65 2.65 0 00-1.58 1.31 2.74 2.74 0 00-.14 2.05l.3.87a2.91 2.91 0 001.38 1.59 2.85 2.85 0 002.09.2 2.65 2.65 0 001.58-1.31 2.74 2.74 0 00.14-2.05l-.3-.87a2.91 2.91 0 00-1.38-1.59 2.85 2.85 0 00-2.09-.2zm20.72-.74l.48-.15c3.34-1 1.59-6.18-1.75-5.16l-.48.15c-3.35 1.04-1.6 6.16 1.75 5.16z" transform="translate(-105.25 -649.35)"/><path class="cls-11" d="M423.1 943.57c-1.71-5.85-3.4-11.71-5.19-17.54-4.67-15.24-10-30.26-17.65-44.42q-.56-1-1.13-2L397.7 877a98.73 98.73 0 00-8.26-12.59 47.84 47.84 0 00-3.69-4.12c-.54-.54-1.09-1.06-1.66-1.56-2.65-2.33-5.15-5-7.94-7.18a16.69 16.69 0 00-3-1.83c-.44-.21-.88-.41-1.33-.6-2.21-.91-4.48-1.53-6.78-2.63a21.81 21.81 0 014.79 3.15 27.09 27.09 0 013.79 4c6.27 8.1 9.11 19.88 12 28.58 3.39 10.37 6.13 20.91 8.93 31.43 5.53 20.77 11.35 41.78 22.38 60.64l.06.1a108 108 0 0013.58 18.48l.91-.51c.52-.28 1.06-.55 1.6-.81l3.81-6.63c-2.54-6.16-4.79-12.43-6.87-18.76-2.48-7.43-4.71-15.01-6.92-22.59z" transform="translate(-105.25 -649.35)"/><path d="M430.55 992.93c-2.67 1.48-5.23 3.14-7.75 4.86-2.73 1.86-5.43 3.78-8.18 5.6-2 1.35-4.12 2.65-6.27 3.82a52.66 52.66 0 01-4.71 2.31c-2.38 1-4.81 1.92-7.26 2.76-18.94 6.57-38.42 9.78-36.87 35.05v.06c0 .72.1 1.45.18 2.21s.21 1.72.33 2.58c.63 4.4 1.65 8.78 2.5 13.15l.07.39a60.22 60.22 0 011.4 14.62c-.35 6.55-2.44 12.93-2.13 19.5a33.18 33.18 0 002.59 11l68.6-119.22c-.54.26-1.08.53-1.6.81z" transform="translate(-105.25 -649.35)" fill="#ffedf1"/></g></g></svg>